<?xml version="1.0" standalone="no"?>
<!DOCTYPE svg PUBLIC "-//W3C//DTD SVG 20010904//EN"
 "http://www.w3.org/TR/2001/REC-SVG-20010904/DTD/svg10.dtd">
<svg version="1.0" xmlns="http://www.w3.org/2000/svg"
 width="1024.000000pt" height="1024.000000pt" viewBox="0 0 1024.000000 1024.000000"
 preserveAspectRatio="xMidYMid meet">
<metadata>
Created by potrace 1.11, written by Peter Selinger 2001-2013
</metadata>
<g transform="translate(0.000000,1024.000000) scale(0.100000,-0.100000)"
fill="#000000" stroke="none">
<path d="M4888 8995 c-1 -1 -50 -5 -108 -9 -57 -4 -114 -9 -125 -11 -11 -2
-40 -6 -65 -9 -380 -40 -830 -175 -1194 -358 -625 -313 -1211 -848 -1588
-1448 -118 -189 -197 -343 -304 -595 -67 -160 -170 -524 -198 -705 -3 -19 -10
-58 -15 -86 -6 -29 -13 -83 -17 -120 -3 -38 -8 -78 -10 -89 -24 -126 -24 -757
0 -895 3 -14 7 -50 11 -80 8 -77 44 -288 66 -385 108 -480 337 -970 644 -1379
494 -659 1181 -1163 1901 -1396 111 -36 290 -85 354 -96 14 -3 68 -13 120 -24
52 -10 118 -21 145 -25 28 -3 64 -8 80 -10 97 -12 130 -16 220 -22 195 -15
673 -7 770 12 11 2 47 7 80 10 65 6 140 18 250 40 39 8 81 16 95 19 61 10 163
39 340 93 99 31 173 58 315 116 62 25 289 139 368 184 533 304 1050 797 1389
1324 104 161 180 306 298 564 22 48 90 238 119 330 56 184 117 466 136 636 3
24 7 60 10 79 25 200 26 761 0 910 -2 14 -7 50 -10 81 -3 31 -7 65 -9 75 -2
11 -9 53 -16 94 -10 61 -36 187 -55 270 -27 118 -86 304 -141 446 -371 961
-1210 1809 -2169 2194 -212 86 -539 179 -715 205 -14 2 -38 6 -55 9 -16 3 -48
8 -70 11 -22 4 -51 8 -65 10 -14 2 -56 7 -95 11 -38 3 -81 8 -95 10 -30 5
-587 14 -592 9z m353 -993 c149 -149 255 -264 268 -289 30 -59 30 -121 0 -177
-13 -25 -87 -110 -164 -188 -165 -168 -175 -181 -175 -229 0 -38 23 -74 84
-130 78 -73 87 -136 29 -201 -69 -76 -148 -150 -168 -158 -11 -4 -66 -7 -122
-7 -122 -1 -132 -6 -245 -121 -113 -115 -118 -135 -59 -256 21 -45 78 -162
126 -261 97 -199 107 -231 94 -279 -17 -60 -48 -79 -142 -84 -101 -5 -117 2
-219 94 -110 99 -147 118 -232 118 -52 0 -95 -9 -161 -31 -49 -17 -168 -57
-264 -88 -95 -31 -186 -66 -202 -78 -70 -51 -90 -170 -43 -243 21 -33 51 -54
148 -107 207 -112 318 -148 511 -162 107 -8 147 -27 220 -107 53 -57 54 -59
125 -153 78 -104 123 -159 169 -202 l44 -43 546 0 c550 -1 601 -2 656 -22 98
-34 141 -66 304 -229 225 -224 247 -268 245 -484 -1 -89 -6 -124 -26 -185 -49
-144 -88 -200 -270 -385 -70 -71 -135 -140 -143 -152 -9 -12 -33 -86 -55 -163
-22 -78 -53 -176 -69 -218 -16 -42 -41 -111 -56 -152 -15 -41 -44 -122 -65
-180 -129 -360 -145 -399 -157 -386 -2 2 -32 -3 -66 -10 -33 -8 -79 -17 -101
-20 -44 -5 -86 -12 -126 -19 -28 -5 -154 -14 -278 -20 l-82 -4 0 262 c0 296 0
296 -41 432 -47 152 -159 364 -241 456 -131 146 -137 154 -165 204 -46 85 -52
138 -53 461 -1 322 -3 363 -27 434 -49 149 -117 213 -373 352 -197 107 -314
169 -465 248 -239 124 -287 151 -395 224 -158 107 -285 216 -405 347 -74 81
-199 262 -626 907 -27 41 -49 81 -49 89 0 24 137 284 215 408 175 278 396 528
666 750 140 116 396 276 593 371 l129 62 208 -103 c125 -62 226 -106 254 -110
91 -14 196 41 245 127 21 37 25 59 28 163 2 66 5 121 6 122 2 2 127 23 181 29
22 3 72 9 110 13 39 5 72 9 75 10 3 0 116 -111 251 -247z m2735 -1613 c29 -63
59 -134 68 -159 8 -25 29 -85 45 -133 31 -89 85 -292 96 -357 3 -19 8 -42 10
-50 4 -15 7 -32 20 -120 11 -78 13 -93 21 -175 17 -184 3 -636 -21 -675 -6
-10 -490 127 -537 151 -66 34 -111 89 -282 346 -182 275 -203 321 -192 432 9
96 22 121 234 451 34 52 75 118 92 147 46 78 118 136 239 193 58 28 113 55
121 60 8 5 19 8 25 6 5 -1 33 -54 61 -117z"/>
</g>
</svg>
